<?xml version="1.0" encoding="UTF-8" standalone="no"?>
<!DOCTYPE svg PUBLIC "-//W3C//DTD SVG 1.1//EN"
 "http://www.w3.org/Graphics/SVG/1.1/DTD/svg11.dtd">
<!-- Generated by graphviz version 13.1.2 (20250808.2320)
 -->
<!-- Pages: 1 -->
<svg width="2643pt" height="281pt"
 viewBox="0.00 0.00 2643.00 281.00" xmlns="http://www.w3.org/2000/svg" xmlns:xlink="http://www.w3.org/1999/xlink">
<g id="graph0" class="graph" transform="scale(1 1) rotate(0) translate(4 277)">
<polygon fill="white" stroke="none" points="-4,4 -4,-277 2638.88,-277 2638.88,4 -4,4"/>
<!-- Album -->
<g id="node1" class="node">
<title>Album</title>
<polygon fill="lightblue" stroke="none" points="2017.88,-6.75 2017.88,-29.25 2064.38,-29.25 2064.38,-6.75 2017.88,-6.75"/>
<polygon fill="none" stroke="black" points="2017.88,-6.75 2017.88,-29.25 2064.38,-29.25 2064.38,-6.75 2017.88,-6.75"/>
<text xml:space="preserve" text-anchor="start" x="2020.88" y="-13.95" font-family="Times,serif" font-weight="bold" font-size="14.00">Album</text>
<polygon fill="none" stroke="black" points="2064.38,-6.75 2064.38,-29.25 2122.12,-29.25 2122.12,-6.75 2064.38,-6.75"/>
<text xml:space="preserve" text-anchor="start" x="2067.38" y="-13.95" font-family="Times,serif" text-decoration="underline" font-size="14.00">album_id</text>
<polygon fill="none" stroke="black" points="2122.12,-6.75 2122.12,-29.25 2194.88,-29.25 2194.88,-6.75 2122.12,-6.75"/>
<text xml:space="preserve" text-anchor="start" x="2125.12" y="-12.95" font-family="Times,serif" font-size="14.00">release_date</text>
<polygon fill="none" stroke="black" points="2016.88,-5.75 2016.88,-30.25 2195.88,-30.25 2195.88,-5.75 2016.88,-5.75"/>
</g>
<!-- Track -->
<g id="node2" class="node">
<title>Track</title>
<polygon fill="lightblue" stroke="none" points="1845.12,-85.75 1845.12,-108.25 1886.38,-108.25 1886.38,-85.75 1845.12,-85.75"/>
<polygon fill="none" stroke="black" points="1845.12,-85.75 1845.12,-108.25 1886.38,-108.25 1886.38,-85.75 1845.12,-85.75"/>
<text xml:space="preserve" text-anchor="start" x="1848.12" y="-92.95" font-family="Times,serif" font-weight="bold" font-size="14.00">Track</text>
<polygon fill="none" stroke="black" points="1886.38,-85.75 1886.38,-108.25 1936.62,-108.25 1936.62,-85.75 1886.38,-85.75"/>
<text xml:space="preserve" text-anchor="start" x="1889.38" y="-92.95" font-family="Times,serif" text-decoration="underline" font-size="14.00">track_id</text>
<polygon fill="none" stroke="black" points="1936.62,-85.75 1936.62,-108.25 1963.62,-108.25 1963.62,-85.75 1936.62,-85.75"/>
<text xml:space="preserve" text-anchor="start" x="1939.62" y="-91.95" font-family="Times,serif" font-size="14.00">title</text>
<polygon fill="none" stroke="black" points="1963.62,-85.75 1963.62,-108.25 2014.62,-108.25 2014.62,-85.75 1963.62,-85.75"/>
<text xml:space="preserve" text-anchor="start" x="1966.62" y="-91.95" font-family="Times,serif" font-size="14.00">duration</text>
<polygon fill="none" stroke="black" points="2014.62,-85.75 2014.62,-108.25 2050.62,-108.25 2050.62,-85.75 2014.62,-85.75"/>
<text xml:space="preserve" text-anchor="start" x="2017.62" y="-91.95" font-family="Times,serif" font-size="14.00">genre</text>
<polygon fill="none" stroke="black" points="2050.62,-85.75 2050.62,-108.25 2137.62,-108.25 2137.62,-85.75 2050.62,-85.75"/>
<text xml:space="preserve" text-anchor="start" x="2053.62" y="-92.95" font-family="Times,serif" font-style="italic" font-size="14.00" fill="orange">album_id (FK)</text>
<polygon fill="none" stroke="black" points="1844.12,-84.75 1844.12,-109.25 2138.62,-109.25 2138.62,-84.75 1844.12,-84.75"/>
</g>
<!-- Track&#45;&gt;Album -->
<g id="edge1" class="edge">
<title>Track:album_id&#45;&gt;Album:album_id</title>
<path fill="none" stroke="black" d="M2077.75,-86.02C2077.75,-86.02 2077.75,-40.66 2077.75,-40.66"/>
<polygon fill="black" stroke="black" points="2081.25,-40.66 2077.75,-30.66 2074.25,-40.66 2081.25,-40.66"/>
</g>
<!-- Artist -->
<g id="node3" class="node">
<title>Artist</title>
<polygon fill="lightblue" stroke="none" points="2184.88,-85.75 2184.88,-108.25 2224.62,-108.25 2224.62,-85.75 2184.88,-85.75"/>
<polygon fill="none" stroke="black" points="2184.88,-85.75 2184.88,-108.25 2224.62,-108.25 2224.62,-85.75 2184.88,-85.75"/>
<text xml:space="preserve" text-anchor="start" x="2187.88" y="-92.95" font-family="Times,serif" font-weight="bold" font-size="14.00">Artist</text>
<polygon fill="none" stroke="black" points="2224.62,-85.75 2224.62,-108.25 2274.88,-108.25 2274.88,-85.75 2224.62,-85.75"/>
<text xml:space="preserve" text-anchor="start" x="2227.62" y="-92.95" font-family="Times,serif" text-decoration="underline" font-size="14.00">artist_id</text>
<polygon fill="none" stroke="black" points="2274.88,-85.75 2274.88,-108.25 2336.38,-108.25 2336.38,-85.75 2274.88,-85.75"/>
<text xml:space="preserve" text-anchor="start" x="2277.88" y="-91.95" font-family="Times,serif" font-size="14.00">full_name</text>
<polygon fill="none" stroke="black" points="2336.38,-85.75 2336.38,-108.25 2373.12,-108.25 2373.12,-85.75 2336.38,-85.75"/>
<text xml:space="preserve" text-anchor="start" x="2339.38" y="-91.95" font-family="Times,serif" font-size="14.00">email</text>
<polygon fill="none" stroke="black" points="2373.12,-85.75 2373.12,-108.25 2475.88,-108.25 2475.88,-85.75 2373.12,-85.75"/>
<text xml:space="preserve" text-anchor="start" x="2376.12" y="-91.95" font-family="Times,serif" font-size="14.00">login_name (UQ)</text>
<polygon fill="none" stroke="black" points="2475.88,-85.75 2475.88,-108.25 2532.88,-108.25 2532.88,-85.75 2475.88,-85.75"/>
<text xml:space="preserve" text-anchor="start" x="2478.88" y="-91.95" font-family="Times,serif" font-size="14.00">password</text>
<polygon fill="none" stroke="black" points="2532.88,-85.75 2532.88,-108.25 2625.88,-108.25 2625.88,-85.75 2532.88,-85.75"/>
<text xml:space="preserve" text-anchor="start" x="2535.88" y="-91.95" font-family="Times,serif" font-size="14.00">mobile_number</text>
<polygon fill="none" stroke="black" points="2183.88,-84.75 2183.88,-109.25 2626.88,-109.25 2626.88,-84.75 2183.88,-84.75"/>
</g>
<!-- Customer -->
<g id="node4" class="node">
<title>Customer</title>
<polygon fill="lightblue" stroke="none" points="1140.88,-85.75 1140.88,-108.25 1204.62,-108.25 1204.62,-85.75 1140.88,-85.75"/>
<polygon fill="none" stroke="black" points="1140.88,-85.75 1140.88,-108.25 1204.62,-108.25 1204.62,-85.75 1140.88,-85.75"/>
<text xml:space="preserve" text-anchor="start" x="1143.88" y="-92.95" font-family="Times,serif" font-weight="bold" font-size="14.00">Customer</text>
<polygon fill="none" stroke="black" points="1204.62,-85.75 1204.62,-108.25 1278.12,-108.25 1278.12,-85.75 1204.62,-85.75"/>
<text xml:space="preserve" text-anchor="start" x="1207.62" y="-92.95" font-family="Times,serif" text-decoration="underline" font-size="14.00">customer_id</text>
<polygon fill="none" stroke="black" points="1278.12,-85.75 1278.12,-108.25 1339.62,-108.25 1339.62,-85.75 1278.12,-85.75"/>
<text xml:space="preserve" text-anchor="start" x="1281.12" y="-91.95" font-family="Times,serif" font-size="14.00">full_name</text>
<polygon fill="none" stroke="black" points="1339.62,-85.75 1339.62,-108.25 1376.38,-108.25 1376.38,-85.75 1339.62,-85.75"/>
<text xml:space="preserve" text-anchor="start" x="1342.62" y="-91.95" font-family="Times,serif" font-size="14.00">email</text>
<polygon fill="none" stroke="black" points="1376.38,-85.75 1376.38,-108.25 1479.12,-108.25 1479.12,-85.75 1376.38,-85.75"/>
<text xml:space="preserve" text-anchor="start" x="1379.38" y="-91.95" font-family="Times,serif" font-size="14.00">login_name (UQ)</text>
<polygon fill="none" stroke="black" points="1479.12,-85.75 1479.12,-108.25 1536.12,-108.25 1536.12,-85.75 1479.12,-85.75"/>
<text xml:space="preserve" text-anchor="start" x="1482.12" y="-91.95" font-family="Times,serif" font-size="14.00">password</text>
<polygon fill="none" stroke="black" points="1536.12,-85.75 1536.12,-108.25 1629.12,-108.25 1629.12,-85.75 1536.12,-85.75"/>
<text xml:space="preserve" text-anchor="start" x="1539.12" y="-91.95" font-family="Times,serif" font-size="14.00">mobile_number</text>
<polygon fill="none" stroke="black" points="1629.12,-85.75 1629.12,-108.25 1737.12,-108.25 1737.12,-85.75 1629.12,-85.75"/>
<text xml:space="preserve" text-anchor="start" x="1632.12" y="-91.95" font-family="Times,serif" font-size="14.00">age [non&#45;negative]</text>
<polygon fill="none" stroke="black" points="1737.12,-85.75 1737.12,-108.25 1797.88,-108.25 1797.88,-85.75 1737.12,-85.75"/>
<text xml:space="preserve" text-anchor="start" x="1740.12" y="-91.95" font-family="Times,serif" font-size="14.00">birth_date</text>
<polygon fill="none" stroke="black" points="1139.88,-84.75 1139.88,-109.25 1798.88,-109.25 1798.88,-84.75 1139.88,-84.75"/>
</g>
<!-- Staff -->
<g id="node5" class="node">
<title>Staff</title>
<polygon fill="lightblue" stroke="none" points="9,-164.75 9,-187.25 42.75,-187.25 42.75,-164.75 9,-164.75"/>
<polygon fill="none" stroke="black" points="9,-164.75 9,-187.25 42.75,-187.25 42.75,-164.75 9,-164.75"/>
<text xml:space="preserve" text-anchor="start" x="12" y="-171.95" font-family="Times,serif" font-weight="bold" font-size="14.00">Staff</text>
<polygon fill="none" stroke="black" points="42.75,-164.75 42.75,-187.25 90,-187.25 90,-164.75 42.75,-164.75"/>
<text xml:space="preserve" text-anchor="start" x="45.75" y="-171.95" font-family="Times,serif" text-decoration="underline" font-size="14.00">staff_id</text>
<polygon fill="none" stroke="black" points="90,-164.75 90,-187.25 151.5,-187.25 151.5,-164.75 90,-164.75"/>
<text xml:space="preserve" text-anchor="start" x="93" y="-170.95" font-family="Times,serif" font-size="14.00">full_name</text>
<polygon fill="none" stroke="black" points="151.5,-164.75 151.5,-187.25 188.25,-187.25 188.25,-164.75 151.5,-164.75"/>
<text xml:space="preserve" text-anchor="start" x="154.5" y="-170.95" font-family="Times,serif" font-size="14.00">email</text>
<polygon fill="none" stroke="black" points="188.25,-164.75 188.25,-187.25 291,-187.25 291,-164.75 188.25,-164.75"/>
<text xml:space="preserve" text-anchor="start" x="191.25" y="-170.95" font-family="Times,serif" font-size="14.00">login_name (UQ)</text>
<polygon fill="none" stroke="black" points="291,-164.75 291,-187.25 348,-187.25 348,-164.75 291,-164.75"/>
<text xml:space="preserve" text-anchor="start" x="294" y="-170.95" font-family="Times,serif" font-size="14.00">password</text>
<polygon fill="none" stroke="black" points="348,-164.75 348,-187.25 441,-187.25 441,-164.75 348,-164.75"/>
<text xml:space="preserve" text-anchor="start" x="351" y="-170.95" font-family="Times,serif" font-size="14.00">mobile_number</text>
<polygon fill="none" stroke="black" points="441,-164.75 441,-187.25 487.5,-187.25 487.5,-164.75 441,-164.75"/>
<text xml:space="preserve" text-anchor="start" x="444" y="-170.95" font-family="Times,serif" font-size="14.00">address</text>
<polygon fill="none" stroke="black" points="487.5,-164.75 487.5,-187.25 633.75,-187.25 633.75,-164.75 487.5,-164.75"/>
<text xml:space="preserve" text-anchor="start" x="490.5" y="-170.95" font-family="Times,serif" font-size="14.00">compensation [0&#45;200000]</text>
<polygon fill="none" stroke="black" points="8,-163.75 8,-188.25 634.75,-188.25 634.75,-163.75 8,-163.75"/>
</g>
<!-- Review -->
<g id="node6" class="node">
<title>Review</title>
<polygon fill="lightblue" stroke="none" points="1085.12,-164.75 1085.12,-187.25 1133.12,-187.25 1133.12,-164.75 1085.12,-164.75"/>
<polygon fill="none" stroke="black" points="1085.12,-164.75 1085.12,-187.25 1133.12,-187.25 1133.12,-164.75 1085.12,-164.75"/>
<text xml:space="preserve" text-anchor="start" x="1088.12" y="-171.95" font-family="Times,serif" font-weight="bold" font-size="14.00">Review</text>
<polygon fill="none" stroke="black" points="1133.12,-164.75 1133.12,-187.25 1193.12,-187.25 1193.12,-164.75 1133.12,-164.75"/>
<text xml:space="preserve" text-anchor="start" x="1136.12" y="-171.95" font-family="Times,serif" text-decoration="underline" font-size="14.00">review_id</text>
<polygon fill="none" stroke="black" points="1193.12,-164.75 1193.12,-187.25 1295.88,-187.25 1295.88,-164.75 1193.12,-164.75"/>
<text xml:space="preserve" text-anchor="start" x="1196.12" y="-171.95" font-family="Times,serif" font-style="italic" font-size="14.00" fill="orange">customer_id (FK)</text>
<polygon fill="none" stroke="black" points="1295.88,-164.75 1295.88,-187.25 1376.88,-187.25 1376.88,-164.75 1295.88,-164.75"/>
<text xml:space="preserve" text-anchor="start" x="1298.88" y="-171.95" font-family="Times,serif" font-style="italic" font-size="14.00" fill="orange">track_id (FK)</text>
<polygon fill="none" stroke="black" points="1376.88,-164.75 1376.88,-187.25 1445.12,-187.25 1445.12,-164.75 1376.88,-164.75"/>
<text xml:space="preserve" text-anchor="start" x="1379.88" y="-170.95" font-family="Times,serif" font-size="14.00">rating [1&#45;5]</text>
<polygon fill="none" stroke="black" points="1445.12,-164.75 1445.12,-187.25 1502.88,-187.25 1502.88,-164.75 1445.12,-164.75"/>
<text xml:space="preserve" text-anchor="start" x="1448.12" y="-170.95" font-family="Times,serif" font-size="14.00">comment</text>
<polygon fill="none" stroke="black" points="1502.88,-164.75 1502.88,-187.25 1577.12,-187.25 1577.12,-164.75 1502.88,-164.75"/>
<text xml:space="preserve" text-anchor="start" x="1505.88" y="-170.95" font-family="Times,serif" font-size="14.00">created_date</text>
<polygon fill="none" stroke="black" points="1577.12,-164.75 1577.12,-187.25 1653.62,-187.25 1653.62,-164.75 1577.12,-164.75"/>
<text xml:space="preserve" text-anchor="start" x="1580.12" y="-170.95" font-family="Times,serif" font-size="14.00">created_time</text>
<polygon fill="none" stroke="black" points="1084.12,-163.75 1084.12,-188.25 1654.62,-188.25 1654.62,-163.75 1084.12,-163.75"/>
</g>
<!-- Review&#45;&gt;Track -->
<g id="edge3" class="edge">
<title>Review:track_id&#45;&gt;Track:track_id</title>
<path fill="none" stroke="black" d="M1485.71,-175.89C1485.71,-173.6 1485.71,-137 1485.71,-137 1485.71,-137 1889.04,-137 1889.04,-137 1889.04,-137 1889.04,-119.44 1889.04,-119.44"/>
<polygon fill="black" stroke="black" points="1892.54,-119.44 1889.04,-109.44 1885.54,-119.44 1892.54,-119.44"/>
</g>
<!-- Review&#45;&gt;Customer -->
<g id="edge2" class="edge">
<title>Review:customer_id&#45;&gt;Customer:customer_id</title>
<path fill="none" stroke="black" d="M1308.79,-175.94C1308.79,-175.94 1308.79,-108.57 1308.79,-108.57"/>
<polygon fill="black" stroke="black" points="1312.29,-108.57 1308.79,-98.57 1305.29,-108.57 1312.29,-108.57"/>
</g>
<!-- Playlist -->
<g id="node7" class="node">
<title>Playlist</title>
<polygon fill="lightblue" stroke="none" points="680.5,-164.75 680.5,-187.25 729.25,-187.25 729.25,-164.75 680.5,-164.75"/>
<polygon fill="none" stroke="black" points="680.5,-164.75 680.5,-187.25 729.25,-187.25 729.25,-164.75 680.5,-164.75"/>
<text xml:space="preserve" text-anchor="start" x="683.5" y="-171.95" font-family="Times,serif" font-weight="bold" font-size="14.00">Playlist</text>
<polygon fill="none" stroke="black" points="729.25,-164.75 729.25,-187.25 792.25,-187.25 792.25,-164.75 729.25,-164.75"/>
<text xml:space="preserve" text-anchor="start" x="732.25" y="-171.95" font-family="Times,serif" text-decoration="underline" font-size="14.00">playlist_id</text>
<polygon fill="none" stroke="black" points="792.25,-164.75 792.25,-187.25 895,-187.25 895,-164.75 792.25,-164.75"/>
<text xml:space="preserve" text-anchor="start" x="795.25" y="-171.95" font-family="Times,serif" font-style="italic" font-size="14.00" fill="orange">customer_id (FK)</text>
<polygon fill="none" stroke="black" points="895,-164.75 895,-187.25 1038.25,-187.25 1038.25,-164.75 895,-164.75"/>
<text xml:space="preserve" text-anchor="start" x="898" y="-170.95" font-family="Times,serif" font-size="14.00">name (UQ per customer)</text>
<polygon fill="none" stroke="black" points="679.5,-163.75 679.5,-188.25 1039.25,-188.25 1039.25,-163.75 679.5,-163.75"/>
</g>
<!-- Playlist&#45;&gt;Customer -->
<g id="edge4" class="edge">
<title>Playlist:customer_id&#45;&gt;Customer:customer_id</title>
<path fill="none" stroke="black" d="M859.38,-165.02C859.38,-143.31 859.38,-97 859.38,-97 859.38,-97 1193.23,-97 1193.23,-97"/>
<polygon fill="black" stroke="black" points="1193.23,-100.5 1203.23,-97 1193.23,-93.5 1193.23,-100.5"/>
</g>
<!-- Contributed -->
<g id="node8" class="node">
<title>Contributed</title>
<polygon fill="lightsalmon" stroke="none" points="2113.88,-164.75 2113.88,-187.25 2191.12,-187.25 2191.12,-164.75 2113.88,-164.75"/>
<polygon fill="none" stroke="black" points="2113.88,-164.75 2113.88,-187.25 2191.12,-187.25 2191.12,-164.75 2113.88,-164.75"/>
<text xml:space="preserve" text-anchor="start" x="2116.88" y="-171.95" font-family="Times,serif" font-weight="bold" font-size="14.00">Contributed</text>
<polygon fill="none" stroke="black" points="2191.12,-164.75 2191.12,-187.25 2272.88,-187.25 2272.88,-164.75 2191.12,-164.75"/>
<text xml:space="preserve" text-anchor="start" x="2194.12" y="-171.95" font-family="Times,serif" font-style="italic" text-decoration="underline" font-size="14.00" fill="orange">artist_id (FK)</text>
<polygon fill="none" stroke="black" points="2272.88,-164.75 2272.88,-187.25 2353.88,-187.25 2353.88,-164.75 2272.88,-164.75"/>
<text xml:space="preserve" text-anchor="start" x="2275.88" y="-171.95" font-family="Times,serif" font-style="italic" text-decoration="underline" font-size="14.00" fill="orange">track_id (FK)</text>
<polygon fill="none" stroke="black" points="2353.88,-164.75 2353.88,-187.25 2380.88,-187.25 2380.88,-164.75 2353.88,-164.75"/>
<text xml:space="preserve" text-anchor="start" x="2356.88" y="-170.95" font-family="Times,serif" font-size="14.00">role</text>
<polygon fill="none" stroke="black" points="2112.88,-163.75 2112.88,-188.25 2381.88,-188.25 2381.88,-163.75 2112.88,-163.75"/>
</g>
<!-- Contributed&#45;&gt;Track -->
<g id="edge6" class="edge">
<title>Contributed:track_id&#45;&gt;Track:track_id</title>
<path fill="none" stroke="black" d="M2125.75,-175.94C2125.75,-175.94 2125.75,-108.57 2125.75,-108.57"/>
<polygon fill="black" stroke="black" points="2129.25,-108.57 2125.75,-98.57 2122.25,-108.57 2129.25,-108.57"/>
</g>
<!-- Contributed&#45;&gt;Artist -->
<g id="edge5" class="edge">
<title>Contributed:artist_id&#45;&gt;Artist:artist_id</title>
<path fill="none" stroke="black" d="M2282.88,-175.94C2282.88,-175.94 2282.88,-108.57 2282.88,-108.57"/>
<polygon fill="black" stroke="black" points="2286.38,-108.57 2282.88,-98.57 2279.38,-108.57 2286.38,-108.57"/>
</g>
<!-- Remove -->
<g id="node9" class="node">
<title>Remove</title>
<polygon fill="lightsalmon" stroke="none" points="517,-243.75 517,-266.25 570.25,-266.25 570.25,-243.75 517,-243.75"/>
<polygon fill="none" stroke="black" points="517,-243.75 517,-266.25 570.25,-266.25 570.25,-243.75 517,-243.75"/>
<text xml:space="preserve" text-anchor="start" x="520" y="-250.95" font-family="Times,serif" font-weight="bold" font-size="14.00">Remove</text>
<polygon fill="none" stroke="black" points="570.25,-243.75 570.25,-266.25 646.75,-266.25 646.75,-243.75 570.25,-243.75"/>
<text xml:space="preserve" text-anchor="start" x="573.25" y="-250.95" font-family="Times,serif" font-style="italic" text-decoration="underline" font-size="14.00" fill="orange">staff_id (FK)</text>
<polygon fill="none" stroke="black" points="646.75,-243.75 646.75,-266.25 736,-266.25 736,-243.75 646.75,-243.75"/>
<text xml:space="preserve" text-anchor="start" x="649.75" y="-250.95" font-family="Times,serif" font-style="italic" text-decoration="underline" font-size="14.00" fill="orange">review_id (FK)</text>
<polygon fill="none" stroke="black" points="736,-243.75 736,-266.25 829,-266.25 829,-243.75 736,-243.75"/>
<text xml:space="preserve" text-anchor="start" x="739" y="-249.95" font-family="Times,serif" font-size="14.00">removal_reason</text>
<polygon fill="none" stroke="black" points="829,-243.75 829,-266.25 909.25,-266.25 909.25,-243.75 829,-243.75"/>
<text xml:space="preserve" text-anchor="start" x="832" y="-249.95" font-family="Times,serif" font-size="14.00">removal_date</text>
<polygon fill="none" stroke="black" points="909.25,-243.75 909.25,-266.25 991.75,-266.25 991.75,-243.75 909.25,-243.75"/>
<text xml:space="preserve" text-anchor="start" x="912.25" y="-249.95" font-family="Times,serif" font-size="14.00">removal_time</text>
<polygon fill="none" stroke="black" points="516,-242.75 516,-267.25 992.75,-267.25 992.75,-242.75 516,-242.75"/>
</g>
<!-- Remove&#45;&gt;Staff -->
<g id="edge7" class="edge">
<title>Remove:staff_id&#45;&gt;Staff:staff_id</title>
<path fill="none" stroke="black" d="M575.38,-244.02C575.38,-244.02 575.38,-187.65 575.38,-187.65"/>
<polygon fill="black" stroke="black" points="578.88,-187.65 575.38,-177.65 571.88,-187.65 578.88,-187.65"/>
</g>
<!-- Remove&#45;&gt;Review -->
<g id="edge8" class="edge">
<title>Remove:review_id&#45;&gt;Review:review_id</title>
<path fill="none" stroke="black" d="M735.73,-261C839.24,-261 1088.06,-261 1088.06,-261 1088.06,-261 1088.06,-187.58 1088.06,-187.58"/>
<polygon fill="black" stroke="black" points="1091.56,-187.58 1088.06,-177.58 1084.56,-187.58 1091.56,-187.58"/>
</g>
<!-- PlaylistItem -->
<g id="node10" class="node">
<title>PlaylistItem</title>
<polygon fill="lightsalmon" stroke="none" points="1109,-243.75 1109,-266.25 1185.5,-266.25 1185.5,-243.75 1109,-243.75"/>
<polygon fill="none" stroke="black" points="1109,-243.75 1109,-266.25 1185.5,-266.25 1185.5,-243.75 1109,-243.75"/>
<text xml:space="preserve" text-anchor="start" x="1112" y="-250.95" font-family="Times,serif" font-weight="bold" font-size="14.00">PlaylistItem</text>
<polygon fill="none" stroke="black" points="1185.5,-243.75 1185.5,-266.25 1278.5,-266.25 1278.5,-243.75 1185.5,-243.75"/>
<text xml:space="preserve" text-anchor="start" x="1188.5" y="-250.95" font-family="Times,serif" font-style="italic" text-decoration="underline" font-size="14.00" fill="orange">playlist_id (FK)</text>
<polygon fill="none" stroke="black" points="1278.5,-243.75 1278.5,-266.25 1359.5,-266.25 1359.5,-243.75 1278.5,-243.75"/>
<text xml:space="preserve" text-anchor="start" x="1281.5" y="-250.95" font-family="Times,serif" font-style="italic" text-decoration="underline" font-size="14.00" fill="orange">track_id (FK)</text>
<polygon fill="none" stroke="black" points="1359.5,-243.75 1359.5,-266.25 1505.75,-266.25 1505.75,-243.75 1359.5,-243.75"/>
<text xml:space="preserve" text-anchor="start" x="1362.5" y="-249.95" font-family="Times,serif" font-size="14.00">position (UQ per playlist)</text>
<polygon fill="none" stroke="black" points="1108,-242.75 1108,-267.25 1506.75,-267.25 1506.75,-242.75 1108,-242.75"/>
</g>
<!-- PlaylistItem&#45;&gt;Track -->
<g id="edge10" class="edge">
<title>PlaylistItem:track_id&#45;&gt;Track:track_id</title>
<path fill="none" stroke="black" d="M1359.34,-255C1512.56,-255 2049.88,-255 2049.88,-255 2049.88,-255 2049.88,-108.63 2049.88,-108.63"/>
<polygon fill="black" stroke="black" points="2053.38,-108.63 2049.88,-98.63 2046.38,-108.63 2053.38,-108.63"/>
</g>
<!-- PlaylistItem&#45;&gt;Playlist -->
<g id="edge9" class="edge">
<title>PlaylistItem:playlist_id&#45;&gt;Playlist:playlist_id</title>
<path fill="none" stroke="black" d="M1185.58,-249C1124.28,-249 1024,-249 1024,-249 1024,-249 1024,-187.57 1024,-187.57"/>
<polygon fill="black" stroke="black" points="1027.5,-187.57 1024,-177.57 1020.5,-187.57 1027.5,-187.57"/>
</g>
<!-- Listens_to -->
<g id="node11" class="node">
<title>Listens_to</title>
<polygon fill="lightsalmon" stroke="none" points="1700.88,-164.75 1700.88,-187.25 1766.12,-187.25 1766.12,-164.75 1700.88,-164.75"/>
<polygon fill="none" stroke="black" points="1700.88,-164.75 1700.88,-187.25 1766.12,-187.25 1766.12,-164.75 1700.88,-164.75"/>
<text xml:space="preserve" text-anchor="start" x="1703.88" y="-171.95" font-family="Times,serif" font-weight="bold" font-size="14.00">Listens_to</text>
<polygon fill="none" stroke="black" points="1766.12,-164.75 1766.12,-187.25 1868.88,-187.25 1868.88,-164.75 1766.12,-164.75"/>
<text xml:space="preserve" text-anchor="start" x="1769.12" y="-171.95" font-family="Times,serif" font-style="italic" text-decoration="underline" font-size="14.00" fill="orange">customer_id (FK)</text>
<polygon fill="none" stroke="black" points="1868.88,-164.75 1868.88,-187.25 1949.88,-187.25 1949.88,-164.75 1868.88,-164.75"/>
<text xml:space="preserve" text-anchor="start" x="1871.88" y="-171.95" font-family="Times,serif" font-style="italic" text-decoration="underline" font-size="14.00" fill="orange">track_id (FK)</text>
<polygon fill="none" stroke="black" points="1949.88,-164.75 1949.88,-187.25 1985.88,-187.25 1985.88,-164.75 1949.88,-164.75"/>
<text xml:space="preserve" text-anchor="start" x="1952.88" y="-170.95" font-family="Times,serif" font-size="14.00">times</text>
<polygon fill="none" stroke="black" points="1699.88,-163.75 1699.88,-188.25 1986.88,-188.25 1986.88,-163.75 1699.88,-163.75"/>
</g>
<!-- Listens_to&#45;&gt;Track -->
<g id="edge12" class="edge">
<title>Listens_to:track_id&#45;&gt;Track:track_id</title>
<path fill="none" stroke="black" d="M1941.96,-165.02C1941.96,-165.02 1941.96,-108.65 1941.96,-108.65"/>
<polygon fill="black" stroke="black" points="1945.46,-108.65 1941.96,-98.65 1938.46,-108.65 1945.46,-108.65"/>
</g>
<!-- Listens_to&#45;&gt;Customer -->
<g id="edge11" class="edge">
<title>Listens_to:customer_id&#45;&gt;Customer:customer_id</title>
<path fill="none" stroke="black" d="M1749.38,-175.94C1749.38,-175.94 1749.38,-108.57 1749.38,-108.57"/>
<polygon fill="black" stroke="black" points="1752.88,-108.57 1749.38,-98.57 1745.88,-108.57 1752.88,-108.57"/>
</g>
</g>
</svg>
